<?xml version="1.0" encoding="utf-8"?>
<!-- Generator: Adobe Illustrator 16.0.0, SVG Export Plug-In . SVG Version: 6.00 Build 0)  -->
<!DOCTYPE svg PUBLIC "-//W3C//DTD SVG 1.1//EN" "http://www.w3.org/Graphics/SVG/1.1/DTD/svg11.dtd">
<svg version="1.1" xmlns="http://www.w3.org/2000/svg" xmlns:xlink="http://www.w3.org/1999/xlink" x="0px" y="0px" width="217px"
	 height="431.648px" viewBox="0 0 217 431.648" enable-background="new 0 0 217 431.648" xml:space="preserve">
<g id="Слой_1">
</g>
<g>
	<path fill="none" stroke="#FFFFFF" stroke-miterlimit="10" d="M81.2,35.647c1.657,0,3-1.343,3-3c0-1.657-1.343-3-3-3c-1.657,0-3,1.343-3,3
		C78.2,34.305,79.543,35.647,81.2,35.647L81.2,35.647z M96.991,30.647c-1.1,0-1.991,0.888-1.991,2l0,0c0,1.105,0.9,2,1.991,2h24.018
		c1.101,0,1.991-0.888,1.991-2l0,0c0-1.105-0.9-2-1.991-2H96.991L96.991,30.647z M212,114.451v286.202
		c0,14.352-11.641,25.996-25.999,25.996H31.999C17.647,426.648,6,415.008,6,400.651V32.643C6,18.292,17.64,6.647,31.999,6.647
		h154.003C200.354,6.647,212,18.286,212,32.643v55.203c-0.243,0.181-0.4,0.47-0.4,0.794v25.014
		C211.6,113.979,211.756,114.27,212,114.451L212,114.451z M31.994,11.647C19.847,11.647,10,21.503,10,33.654v365.986
		c0,12.154,9.853,22.008,21.994,22.008h154.013c12.147,0,21.994-9.857,21.994-22.008V33.654c0-12.154-9.853-22.007-21.994-22.007
		H31.994L31.994,11.647z M5.585,87.731l-0.004,26 M5.5,56.147v16 M5.967,120.147l-0.004,26 M109,22.647c1.105,0,2-0.895,2-2
		s-0.895-2-2-2c-1.104,0-2,0.895-2,2C107,21.751,107.896,22.647,109,22.647L109,22.647z M109,413.647c6.627,0,12-5.373,12-12
		s-5.373-12-12-12s-12,5.373-12,12S102.373,413.647,109,413.647L109,413.647z M109,415.647c7.732,0,14-6.269,14-14s-6.268-14-14-14
		c-7.732,0-14,6.269-14,14S101.268,415.647,109,415.647L109,415.647z"/>
</g>
</svg>
