<?xml version="1.0" encoding="utf-8"?>
<!-- Generator: Adobe Illustrator 16.0.0, SVG Export Plug-In . SVG Version: 6.00 Build 0)  -->
<!DOCTYPE svg PUBLIC "-//W3C//DTD SVG 1.1//EN" "http://www.w3.org/Graphics/SVG/1.1/DTD/svg11.dtd">
<svg version="1.1" id="Слой_1" xmlns="http://www.w3.org/2000/svg" xmlns:xlink="http://www.w3.org/1999/xlink" x="0px" y="0px"
	 width="217px" height="431.648px" viewBox="0 0 217 431.648" enable-background="new 0 0 217 431.648" xml:space="preserve">
<g>
	<path fill="none" stroke="#FFFFFF" stroke-miterlimit="10" d="M81.2,35.647c1.657,0,3-1.343,3-3c0-1.657-1.343-3-3-3
		c-1.657,0-3,1.343-3,3C78.2,34.304,79.543,35.647,81.2,35.647L81.2,35.647z"/>
	<g>
		<g>
			<defs>
				<path id="SVGID_1_" d="M96.991,30.647c-1.1,0-1.991,0.888-1.991,2l0,0c0,1.105,0.9,2,1.991,2h24.018
					c1.101,0,1.991-0.888,1.991-2l0,0c0-1.105-0.9-2-1.991-2H96.991L96.991,30.647z"/>
			</defs>
			<clipPath id="SVGID_2_">
				<use xlink:href="#SVGID_1_"  overflow="visible"/>
			</clipPath>
		</g>
		<g>
			<defs>
				<path id="SVGID_3_" d="M96.991,30.647c-1.1,0-1.991,0.888-1.991,2l0,0c0,1.105,0.9,2,1.991,2h24.018
					c1.101,0,1.991-0.888,1.991-2l0,0c0-1.105-0.9-2-1.991-2H96.991L96.991,30.647z"/>
			</defs>
			<clipPath id="SVGID_4_">
				<use xlink:href="#SVGID_3_"  overflow="visible"/>
			</clipPath>
		</g>
		<g>
			<defs>
				<path id="SVGID_5_" d="M96.991,30.647c-1.1,0-1.991,0.888-1.991,2l0,0c0,1.105,0.9,2,1.991,2h24.018
					c1.101,0,1.991-0.888,1.991-2l0,0c0-1.105-0.9-2-1.991-2H96.991L96.991,30.647z"/>
			</defs>
			<clipPath id="SVGID_6_">
				<use xlink:href="#SVGID_5_"  overflow="visible"/>
			</clipPath>
			<path clip-path="url(#SVGID_6_)" fill="none" stroke="#FFFFFF" stroke-width="2" stroke-miterlimit="10" d="M96.991,30.647
				c-1.1,0-1.991,0.888-1.991,2l0,0c0,1.105,0.9,2,1.991,2h24.018c1.101,0,1.991-0.888,1.991-2l0,0c0-1.105-0.9-2-1.991-2H96.991
				L96.991,30.647z"/>
		</g>
	</g>
	<g>
		<g>
			<defs>
				<path id="SVGID_7_" d="M212,114.45v286.202c0,14.352-11.641,25.996-25.999,25.996H31.999C17.647,426.648,6,415.007,6,400.651
					V32.642C6,18.291,17.64,6.647,31.999,6.647h154.003C200.354,6.647,212,18.285,212,32.642v55.203
					c-0.243,0.181-0.4,0.47-0.4,0.794v25.014C211.6,113.979,211.756,114.269,212,114.45L212,114.45z"/>
			</defs>
			<clipPath id="SVGID_8_">
				<use xlink:href="#SVGID_7_"  overflow="visible"/>
			</clipPath>
		</g>
		<g>
			<defs>
				<path id="SVGID_9_" d="M212,114.45v286.202c0,14.352-11.641,25.996-25.999,25.996H31.999C17.647,426.648,6,415.007,6,400.651
					V32.642C6,18.291,17.64,6.647,31.999,6.647h154.003C200.354,6.647,212,18.285,212,32.642v55.203
					c-0.243,0.181-0.4,0.47-0.4,0.794v25.014C211.6,113.979,211.756,114.269,212,114.45L212,114.45z"/>
			</defs>
			<clipPath id="SVGID_10_">
				<use xlink:href="#SVGID_9_"  overflow="visible"/>
			</clipPath>
		</g>
		<g>
			<defs>
				<path id="SVGID_11_" d="M212,114.45v286.202c0,14.352-11.641,25.996-25.999,25.996H31.999C17.647,426.648,6,415.007,6,400.651
					V32.642C6,18.291,17.64,6.647,31.999,6.647h154.003C200.354,6.647,212,18.285,212,32.642v55.203
					c-0.243,0.181-0.4,0.47-0.4,0.794v25.014C211.6,113.979,211.756,114.269,212,114.45L212,114.45z"/>
			</defs>
			<clipPath id="SVGID_12_">
				<use xlink:href="#SVGID_11_"  overflow="visible"/>
			</clipPath>
			<path clip-path="url(#SVGID_12_)" fill="none" stroke="#FFFFFF" stroke-width="2" stroke-miterlimit="10" d="M212,114.45v286.202
				c0,14.352-11.641,25.996-25.999,25.996H31.999C17.647,426.648,6,415.007,6,400.651V32.642C6,18.291,17.64,6.647,31.999,6.647
				h154.003C200.354,6.647,212,18.285,212,32.642v55.203c-0.243,0.181-0.4,0.47-0.4,0.794v25.014
				C211.6,113.98,211.756,114.269,212,114.45L212,114.45z"/>
		</g>
	</g>
	<g>
		<g>
			<path fill="none" stroke="#FFFFFF" stroke-miterlimit="10" d="M31.994,11.647C19.847,11.647,10,21.503,10,33.654V399.64
				c0,12.154,9.853,22.008,21.994,22.008h154.013c12.147,0,21.994-9.857,21.994-22.008V33.654c0-12.154-9.853-22.007-21.994-22.007
				H31.994L31.994,11.647z"/>
		</g>
		<g>
			<path fill="none" stroke="#FFFFFF" stroke-linecap="square" stroke-miterlimit="10" d="M5.967,88.147l-0.004,26 M5.5,56.147v16
				 M5.967,120.147l-0.004,26"/>
		</g>
	</g>
	<path fill="none" stroke="#FFFFFF" stroke-miterlimit="10" d="M109,22.647c1.105,0,2-0.895,2-2s-0.895-2-2-2c-1.105,0-2,0.895-2,2
		C107,21.751,107.895,22.647,109,22.647L109,22.647z"/>
	<path fill="none" stroke="#FFFFFF" stroke-miterlimit="10" d="M109,413.647c6.627,0,12-5.373,12-12s-5.373-12-12-12
		s-12,5.373-12,12S102.373,413.647,109,413.647L109,413.647z M109,415.647c7.732,0,14-6.269,14-14s-6.268-14-14-14
		c-7.732,0-14,6.269-14,14S101.268,415.647,109,415.647L109,415.647z"/>
</g>
</svg>
