<?xml version="1.0" encoding="utf-8"?>
<!-- Generator: Adobe Illustrator 17.0.0, SVG Export Plug-In . SVG Version: 6.00 Build 0)  -->
<!DOCTYPE svg PUBLIC "-//W3C//DTD SVG 1.1//EN" "http://www.w3.org/Graphics/SVG/1.1/DTD/svg11.dtd">
<svg version="1.1" id="Слой_1" xmlns="http://www.w3.org/2000/svg" xmlns:xlink="http://www.w3.org/1999/xlink" x="0px" y="0px"
	 width="80px" height="80px" viewBox="0 0 80 80" enable-background="new 0 0 80 80" xml:space="preserve">
<path d="M46.808,35.969c3.492-3.903,2.876-10.545,2.808-11.23c-0.343-7.669-6.026-9.518-9.313-9.45
	c-3.356-0.137-8.97,1.78-9.313,9.45c-0.069,0.685-0.617,7.327,2.808,11.23c1.575,1.78,3.698,2.67,6.368,2.739h0.069h0.069h0.069
	h0.069C43.042,38.639,45.165,37.749,46.808,35.969z M40.303,36.106L40.303,36.106c-0.069,0-0.069,0-0.069,0
	c-1.917,0-3.424-0.617-4.519-1.917c-2.808-3.15-2.191-9.244-2.191-9.313v-0.069c0.274-6.505,5.067-7.053,6.505-7.053
	c0.069,0,0.137,0,0.205,0h0.069c1.096-0.069,6.368,0.069,6.711,7.053v0.069c0,0.069,0.617,6.095-2.191,9.244
	C43.727,35.49,42.29,36.106,40.303,36.106z M43.179,39.256c-0.685,0-1.301,0.548-1.301,1.301c0,0.479-0.205,0.89-0.548,1.164
	c-0.069,0.069-0.137,0.069-0.205,0.137c-0.274,0.137-0.548,0.274-0.89,0.274c-0.89,0-1.575-0.685-1.575-1.575
	c0-0.685-0.548-1.301-1.301-1.301c-0.753,0-1.301,0.548-1.301,1.301c0,0.959,0.343,1.849,0.89,2.534l-0.89,19.995
	c0,0.411,0.137,0.753,0.411,1.027l2.739,2.465c0.274,0.205,0.548,0.343,0.89,0.343c0.274,0,0.617-0.137,0.89-0.343l2.808-2.534
	c0.274-0.274,0.411-0.617,0.411-1.027l-0.89-19.721c0.685-0.753,1.027-1.712,1.027-2.739C44.481,39.872,43.933,39.256,43.179,39.256
	z M40.235,63.907l-1.438-1.301l0.753-17.941c0.274,0.069,0.479,0.069,0.753,0.069c0.205,0,0.411,0,0.548-0.069l0.822,17.872
	L40.235,63.907z M71.323,50.828h0.069c0.685,0,1.233-0.548,1.301-1.164c0.205-3.218-1.027-5.478-3.356-6.026
	c-4.314-1.096-6.026-2.396-6.574-3.218c0.274-0.205,0.548-0.479,0.822-0.753c2.67-2.944,2.26-8.012,2.191-8.56
	c-0.274-5.957-4.656-7.395-7.258-7.327c-2.602-0.069-6.984,1.37-7.258,7.327c-0.069,0.548-0.479,5.615,2.191,8.56
	c0.274,0.343,0.617,0.617,0.959,0.89c-0.274,0.274-0.685,0.685-1.37,1.164c-3.287-1.096-5.821-2.876-5.821-2.876
	c-0.548-0.411-1.37-0.274-1.78,0.343c-0.411,0.548-0.274,1.37,0.343,1.78c0.137,0.137,3.766,2.602,8.217,3.766
	c2.26,0.548,2.396,3.424,2.26,4.999c0,0.069,0,0.069,0,0.137c0,0.89-0.069,2.534-0.274,3.082c-0.274,0.685,0.069,1.369,0.753,1.643
	c0.137,0.069,0.343,0.069,0.479,0.069c0.479,0,0.959-0.274,1.164-0.822c0.479-1.164,0.479-3.424,0.479-4.04
	c0.205-3.424-0.822-5.957-2.876-7.121c0.411-0.411,0.685-0.753,0.89-1.096c0.479,0.137,1.027,0.205,1.575,0.205h0.069h0.069h0.069
	h0.069c0.617,0,1.233-0.069,1.78-0.274c0.822,1.37,2.876,3.218,8.286,4.588c1.438,0.343,1.506,2.26,1.438,3.356
	C70.09,50.143,70.638,50.76,71.323,50.828z M58.517,39.187L58.517,39.187c-1.369,0-2.396-0.411-3.15-1.301
	c-1.986-2.26-1.575-6.574-1.575-6.642v-0.069c0.205-4.588,3.492-4.93,4.519-4.93c0.069,0,0.137,0,0.137,0h0.069
	c0.753,0,4.451,0.069,4.656,4.93v0.069c0.137,1.233,0.137,4.793-1.575,6.642C60.915,38.708,59.887,39.119,58.517,39.187z
	 M10.722,43.638c-2.396,0.617-3.561,2.808-3.356,6.026c0.069,0.685,0.617,1.164,1.301,1.164h0.069
	c0.685-0.069,1.233-0.685,1.164-1.369c-0.069-1.096,0-3.013,1.438-3.356c5.409-1.369,7.464-3.218,8.286-4.588
	c0.548,0.137,1.164,0.205,1.78,0.274h0.069h0.069h0.069c0.548,0,1.096-0.069,1.575-0.205c0.205,0.411,0.617,0.822,1.096,1.301
	c-1.78,1.233-2.67,3.629-2.465,6.848c0,0.548,0,2.876,0.479,4.04c0.205,0.479,0.685,0.822,1.164,0.822c0.137,0,0.343,0,0.479-0.069
	c0.685-0.274,0.959-1.027,0.685-1.643c-0.205-0.548-0.274-2.191-0.274-3.082c0-0.069,0-0.069,0-0.137
	c-0.137-1.643,0-4.451,2.26-4.999c4.519-1.164,8.08-3.629,8.217-3.766c0.548-0.411,0.685-1.233,0.343-1.78
	c-0.411-0.548-1.233-0.753-1.78-0.343c0,0-2.808,1.917-6.3,3.013c-0.822-0.479-1.301-0.89-1.575-1.233
	c0.343-0.274,0.685-0.548,0.959-0.89c2.67-2.944,2.26-8.012,2.191-8.56c-0.274-5.957-4.656-7.395-7.258-7.327
	c-2.602-0.069-6.984,1.37-7.258,7.327c-0.069,0.548-0.479,5.615,2.191,8.56c0.274,0.274,0.548,0.548,0.822,0.753
	C16.748,41.173,15.036,42.543,10.722,43.638z M16.885,31.244v-0.069c0.205-4.588,3.492-4.93,4.519-4.93c0.069,0,0.137,0,0.137,0
	h0.069c0.753,0,4.451,0.069,4.656,4.93v0.069c0,0.069,0.411,4.382-1.575,6.642c-0.753,0.822-1.78,1.301-3.15,1.301h-0.069
	c-1.37,0-2.396-0.411-3.15-1.301C16.405,35.695,16.885,31.313,16.885,31.244z"/>
</svg>
