<?xml version="1.0" encoding="utf-8"?>
<!-- Generator: Adobe Illustrator 17.0.0, SVG Export Plug-In . SVG Version: 6.00 Build 0)  -->
<!DOCTYPE svg PUBLIC "-//W3C//DTD SVG 1.1//EN" "http://www.w3.org/Graphics/SVG/1.1/DTD/svg11.dtd">
<svg version="1.1" id="Слой_1" xmlns="http://www.w3.org/2000/svg" xmlns:xlink="http://www.w3.org/1999/xlink" x="0px" y="0px"
	 width="80px" height="80px" viewBox="0 0 80 80" enable-background="new 0 0 80 80" xml:space="preserve">
<g>
	<g>
		<path d="M79.584,28.736c-0.251-0.348-0.652-0.552-1.078-0.552h-3.983c-0.543,0-1.029,0.331-1.234,0.834l-2.321,5.805H49.295
			v-1.328c0-0.733-0.595-1.328-1.328-1.328h-9.294v-2.656h27.883c0.733,0,1.328-0.595,1.328-1.328c0-0.733-0.595-1.328-1.328-1.328
			H38.672v-1.328c0-0.733-0.595-1.328-1.328-1.328c-0.733,0-1.328,0.595-1.328,1.328v1.328H1.494c-0.733,0-1.328,0.595-1.328,1.328
			c0,0.733,0.595,1.328,1.328,1.328h34.522v2.656h-1.328c-1.532,0-2.255,0.331-2.523,1.348c-7.336,0.244-14.738,2.775-14.738,9.275
			c0,6.006,6.912,7.967,9.294,7.967h0.955l-0.664,2.656h-8.257c-0.596,0-1.328-0.732-1.328-1.328c0-0.733-0.595-1.328-1.328-1.328
			c-0.733,0-1.328,0.595-1.328,1.328c0,2.047,1.936,3.983,3.983,3.983h25.228c0.733,0,1.328-0.595,1.328-1.328
			s-0.595-1.328-1.328-1.328h-3.61l0.682-2.729c5.046-0.672,9.612-5.874,10.468-6.898l3.485-2.324h16.147l2.261,3.392
			c0.247,0.369,0.661,0.591,1.105,0.591h2.656c0.398,0,0.774-0.178,1.026-0.486c0.251-0.307,0.353-0.712,0.275-1.101l-1.259-6.294
			l2.544-7.632C79.9,29.526,79.832,29.081,79.584,28.736z M37.637,53.411h-7.884l0.664-2.656H38.3L37.637,53.411z M74.55,37.738
			l1.008,5.051h-0.325l-2.261-3.392c-0.247-0.369-0.661-0.591-1.105-0.591H54.606c-0.26,0-0.519,0.078-0.737,0.223l-3.983,2.656
			c-0.113,0.076-0.215,0.169-0.3,0.275C49.539,42.02,44.603,48.1,40,48.1H26.722c-0.827,0-6.639-1.054-6.639-5.311
			c0-6.319,11.06-6.639,13.278-6.639c0.733,0,1.328-0.595,1.328-1.328h11.95v1.328c0,0.733,0.595,1.328,1.328,1.328h23.9
			c0.543,0,1.03-0.331,1.235-0.834l2.32-5.805h1.244l-2.075,6.219C74.517,37.277,74.502,37.511,74.55,37.738z"/>
	</g>
</g>
</svg>
