<?xml version="1.0" encoding="utf-8"?>
<!-- Generator: Adobe Illustrator 17.0.0, SVG Export Plug-In . SVG Version: 6.00 Build 0)  -->
<!DOCTYPE svg PUBLIC "-//W3C//DTD SVG 1.1//EN" "http://www.w3.org/Graphics/SVG/1.1/DTD/svg11.dtd">
<svg version="1.1" id="Слой_1" xmlns="http://www.w3.org/2000/svg" xmlns:xlink="http://www.w3.org/1999/xlink" x="0px" y="0px"
	 width="80px" height="80px" viewBox="0 0 80 80" enable-background="new 0 0 80 80" xml:space="preserve">
<g>
	<g>
		<path d="M14.067,30.47l22.766,4.16c-2.41,10.006-8.278,17.55-13.904,17.55c-0.353,0-0.706-0.03-1.05-0.095
			c-2.818-0.514-5.18-3.113-6.654-7.316C13.802,40.71,13.403,35.7,14.067,30.47 M12.189,27.83
			c-2.421,13.245,1.736,25.101,9.283,26.481c0.484,0.088,0.97,0.13,1.457,0.13c7.106,0,14.33-9.219,16.596-21.616L12.189,27.83
			L12.189,27.83z"/>
	</g>
	<rect x="18.776" y="53.775" transform="matrix(0.9837 0.1797 -0.1797 0.9837 11.6212 -2.5538)" width="2.261" height="18.182"/>
	<rect x="12.869" y="70.678" transform="matrix(0.9837 0.1798 -0.1798 0.9837 13.2089 -2.1158)" width="10.815" height="2.259"/>
	<g>
		<g>
			<path d="M66.354,31.695c0.837,10.962-2.991,20.434-8.844,21.214c-0.254,0.034-0.512,0.051-0.77,0.051
				c-5.639,0-11.362-7.983-13.322-18.21L66.354,31.695 M68.358,29.147l-27.545,3.668c1.695,12.723,8.686,22.404,15.925,22.404
				c0.355,0,0.711-0.023,1.065-0.071C65.411,54.135,70.138,42.493,68.358,29.147L68.358,29.147z"/>
		</g>
		<rect x="49.863" y="62.64" transform="matrix(0.132 0.9913 -0.9913 0.132 114.3859 -3.0865)" width="18.184" height="2.261"/>
		<rect x="59.021" y="67.37" transform="matrix(0.1318 0.9913 -0.9913 0.1318 124.3666 3.5599)" width="2.261" height="10.817"/>
	</g>
	<rect x="16.592" y="21.226" transform="matrix(0.7078 0.7064 -0.7064 0.7078 22.3245 -9.2583)" width="11.524" height="2.261"/>
	<rect x="19.846" y="14.963" transform="matrix(0.5377 0.8431 -0.8431 0.5377 25.2502 -13.8647)" width="10.845" height="2.261"/>
	<rect x="27.397" y="14.963" transform="matrix(0.3383 0.941 -0.941 0.3383 37.1919 -20.7066)" width="11.846" height="2.26"/>
	<rect x="34.617" y="11.456" transform="matrix(0.0403 0.9992 -0.9992 0.0403 51.9932 -28.9602)" width="12.911" height="2.261"/>
	<rect x="47.281" y="10.149" transform="matrix(0.9376 0.3477 -0.3477 0.9376 8.6164 -15.8285)" width="2.261" height="11.89"/>
	<rect x="54.338" y="12.539" transform="matrix(0.7761 0.6306 -0.6306 0.7761 23.8114 -30.934)" width="2.261" height="11.054"/>
	<rect x="53.897" y="21.124" transform="matrix(0.49 0.8717 -0.8717 0.49 50.4014 -34.9002)" width="2.261" height="9.001"/>
	<rect x="12.955" y="37.823" width="23.744" height="2.261"/>
	<rect x="43.596" y="37.823" width="23.743" height="2.261"/>
</g>
</svg>
