<?xml version="1.0" encoding="utf-8"?>
<!-- Generator: Adobe Illustrator 17.0.0, SVG Export Plug-In . SVG Version: 6.00 Build 0)  -->
<!DOCTYPE svg PUBLIC "-//W3C//DTD SVG 1.1//EN" "http://www.w3.org/Graphics/SVG/1.1/DTD/svg11.dtd">
<svg version="1.1"
	 xmlns:cc="http://creativecommons.org/ns#" xmlns:svg="http://www.w3.org/2000/svg" xmlns:rdf="http://www.w3.org/1999/02/22-rdf-syntax-ns#" xmlns:dc="http://purl.org/dc/elements/1.1/"
	 xmlns="http://www.w3.org/2000/svg" xmlns:xlink="http://www.w3.org/1999/xlink" x="0px" y="0px" width="80px" height="80px"
	 viewBox="0 0 80 80" enable-background="new 0 0 80 80" xml:space="preserve">
<g transform="translate(0,-952.36216)">
	<path d="M48.468,952.362c-14.148,0-26.115,9.41-29.988,22.305H4.718c-2.591,0-4.718,2.127-4.718,4.718l0.134,48.067
		c0,2.591,2.127,4.718,4.718,4.718h27.452c2.591,0,4.718-2.127,4.718-4.718l-0.134-14.692c3.584,1.43,7.488,2.225,11.579,2.225
		c17.277,0,31.446-14.008,31.446-31.286C79.914,966.42,65.746,952.362,48.468,952.362L48.468,952.362z M48.468,954.935
		c15.887,0,28.873,12.876,28.873,28.763c0,15.887-12.986,28.713-28.873,28.713s-28.739-12.851-28.739-28.739
		C19.73,967.785,32.581,954.935,48.468,954.935L48.468,954.935z M55.565,967.785c-0.064,0.001-0.128,0.008-0.193,0.018H40.707
		c-0.087-0.015-0.177-0.021-0.265-0.017c-0.052,0.002-0.103,0.008-0.154,0.017h-4.075l0,0c-0.429,0.001-0.829,0.216-1.067,0.571
		l-4.804,7.206c-0.436,0.482-0.444,1.214-0.018,1.706l16.991,26.703c0.319,0.636,1.092,0.891,1.728,0.572
		c0.243-0.123,0.442-0.319,0.567-0.561l16.998-26.711c0.438-0.497,0.427-1.245-0.025-1.729l-4.794-7.188
		c-0.239-0.358-0.64-0.574-1.07-0.574h-4.933c-0.072-0.013-0.146-0.018-0.219-0.018L55.565,967.785z M36.901,970.377h2.579
		l1.109,4.779h-6.874L36.901,970.377z M42.123,970.377h11.873l-0.99,4.779h-9.774C43.232,975.156,42.123,970.377,42.123,970.377z
		 M56.623,970.377h3.41l3.187,4.779h-7.588C55.633,975.156,56.623,970.377,56.623,970.377z M4.718,977.24h13.103
		c-0.298,1.428-0.496,2.893-0.591,4.385c-0.159-0.065-0.329-0.098-0.501-0.095h-5.147c-0.711-0.01-1.295,0.557-1.305,1.269
		c-0.01,0.711,0.558,1.295,1.269,1.305c0.013,0,0.024,0,0.037,0h5.147c0.148,0.001,0.296-0.023,0.436-0.072
		c0.135,12.032,7.076,22.441,17.151,27.564l0.134,15.857c0,1.21-0.934,2.145-2.145,2.145H4.852c-1.21,0-2.145-0.934-2.145-2.145
		l-0.134-48.067C2.574,978.174,3.508,977.24,4.718,977.24z M33.652,977.73h7.534l4.325,18.634L33.652,977.73z M43.829,977.73h8.644
		l-4.077,19.678C48.396,997.407,43.829,977.73,43.829,977.73z M55.099,977.73h8.184l-12.13,19.061L55.099,977.73z M18.445,1021.85
		c-1.185,0-2.011,0.986-2.011,2.171c0,1.185,0.96,2.145,2.145,2.145c1.185,0,2.145-0.96,2.145-2.145
		C20.723,1022.836,19.629,1021.85,18.445,1021.85z"/>
</g>
</svg>
