<?xml version="1.0" encoding="utf-8"?>
<!-- Generator: Adobe Illustrator 17.0.0, SVG Export Plug-In . SVG Version: 6.00 Build 0)  -->
<!DOCTYPE svg PUBLIC "-//W3C//DTD SVG 1.1//EN" "http://www.w3.org/Graphics/SVG/1.1/DTD/svg11.dtd">
<svg version="1.1" xmlns="http://www.w3.org/2000/svg" xmlns:xlink="http://www.w3.org/1999/xlink" x="0px" y="0px"
	 width="80px" height="80px" viewBox="0 0 80 80" enable-background="new 0 0 80 80" xml:space="preserve">
<g>
	<g>
		<path fill="white" d="M79.418,28.65c-0.25-0.346-0.649-0.55-1.074-0.55h-3.967c-0.541,0-1.025,0.329-1.228,0.83l-2.311,5.781H49.256v-1.322
			c0-0.73-0.592-1.322-1.322-1.322h-9.256v-2.644h27.767c0.73,0,1.322-0.592,1.322-1.322c0-0.73-0.592-1.322-1.322-1.322H38.678
			v-1.322c0-0.73-0.592-1.322-1.322-1.322c-0.73,0-1.322,0.592-1.322,1.322v1.322H1.656c-0.73,0-1.322,0.592-1.322,1.322
			c0,0.73,0.592,1.322,1.322,1.322h34.378v2.644h-1.322c-1.526,0-2.245,0.329-2.512,1.342c-7.305,0.243-14.677,2.763-14.677,9.236
			c0,5.98,6.883,7.933,9.256,7.933h0.951l-0.661,2.644h-8.223c-0.594,0-1.322-0.729-1.322-1.322c0-0.73-0.592-1.322-1.322-1.322
			c-0.73,0-1.322,0.592-1.322,1.322c0,2.039,1.928,3.967,3.967,3.967h25.122c0.73,0,1.322-0.592,1.322-1.322
			s-0.592-1.322-1.322-1.322h-3.595l0.68-2.717c5.024-0.669,9.572-5.85,10.424-6.869l3.471-2.314h16.08l2.252,3.378
			c0.246,0.368,0.658,0.588,1.1,0.588h2.644c0.397,0,0.771-0.177,1.022-0.484c0.25-0.305,0.352-0.709,0.274-1.096l-1.253-6.267
			l2.533-7.6C79.733,29.437,79.665,28.994,79.418,28.65z M37.646,53.222h-7.851l0.661-2.644h7.851L37.646,53.222z M74.406,37.615
			l1.004,5.03h-0.324l-2.252-3.378c-0.246-0.368-0.658-0.588-1.1-0.588H54.545c-0.259,0-0.517,0.078-0.734,0.222l-3.967,2.644
			c-0.112,0.075-0.214,0.168-0.299,0.274c-0.046,0.061-4.961,6.115-9.545,6.115H26.778c-0.824,0-6.611-1.05-6.611-5.289
			c0-6.292,11.014-6.611,13.222-6.611c0.73,0,1.322-0.592,1.322-1.322h11.9v1.322c0,0.73,0.592,1.322,1.322,1.322h23.8
			c0.541,0,1.026-0.329,1.23-0.83l2.31-5.781h1.239l-2.067,6.193C74.373,37.156,74.358,37.389,74.406,37.615z"/>
	</g>
</g>
</svg>
