<?xml version="1.0" encoding="utf-8"?>
<!-- Generator: Adobe Illustrator 17.0.0, SVG Export Plug-In . SVG Version: 6.00 Build 0)  -->
<!DOCTYPE svg PUBLIC "-//W3C//DTD SVG 1.1//EN" "http://www.w3.org/Graphics/SVG/1.1/DTD/svg11.dtd">
<svg version="1.1" xmlns="http://www.w3.org/2000/svg" xmlns:xlink="http://www.w3.org/1999/xlink" x="0px" y="0px"
	 width="80px" height="80px" viewBox="0 0 80 80" enable-background="new 0 0 80 80" xml:space="preserve">
<g>
	<g>
		<path d="M10.475,29.266l26.166,4.781c-2.769,11.5-9.513,20.17-15.98,20.17c-0.405,0-0.812-0.035-1.207-0.109
			c-3.238-0.591-5.953-3.577-7.647-8.408C10.171,41.035,9.712,35.276,10.475,29.266 M8.317,26.23
			c-2.784,15.222,1.995,28.85,10.67,30.436c0.556,0.101,1.114,0.149,1.674,0.149c8.166,0,16.469-10.596,19.074-24.844L8.317,26.23
			L8.317,26.23z"/>
	</g>
	<rect x="15.887" y="56.048" transform="matrix(-0.9837 -0.1797 0.1797 -0.9837 22.1426 134.9991)" width="2.598" height="20.897"/>
	<rect x="9.098" y="75.477" transform="matrix(-0.9837 -0.1798 0.1798 -0.9837 16.5724 155.0531)" width="12.43" height="2.597"/>
	<g>
		<g>
			<path d="M70.569,30.673c0.963,12.598-3.437,23.485-10.166,24.381c-0.292,0.039-0.588,0.058-0.885,0.058
				c-6.482,0-13.06-9.174-15.312-20.929L70.569,30.673 M72.872,27.745l-31.658,4.216c1.948,14.622,9.984,25.749,18.303,25.749
				c0.408,0,0.817-0.027,1.225-0.082C69.486,56.464,74.918,43.084,72.872,27.745L72.872,27.745z"/>
		</g>
		<rect x="51.614" y="66.242" transform="matrix(-0.132 -0.9913 0.9913 -0.132 3.3049 137.9769)" width="20.899" height="2.598"/>
		<rect x="62.141" y="71.678" transform="matrix(-0.1318 -0.9913 0.9913 -0.1318 -5.413 151.0453)" width="2.598" height="12.431"/>
	</g>
	<rect x="13.377" y="18.642" transform="matrix(-0.7078 -0.7064 0.7064 -0.7078 20.0688 48.1825)" width="13.245" height="2.598"/>
	<rect x="17.117" y="11.442" transform="matrix(-0.5377 -0.8431 0.8431 -0.5377 25.1616 39.2785)" width="12.464" height="2.598"/>
	<rect x="25.796" y="11.442" transform="matrix(-0.3383 -0.941 0.941 -0.3383 31.6434 47.7323)" width="13.615" height="2.598"/>
	<rect x="34.093" y="7.413" transform="matrix(-0.0403 -0.9992 0.9992 -0.0403 34.4811 50.542)" width="14.839" height="2.598"/>
	<rect x="48.649" y="5.91" transform="matrix(-0.9376 -0.3477 0.3477 -0.9376 92.3495 42.0563)" width="2.598" height="13.665"/>
	<rect x="56.76" y="8.656" transform="matrix(-0.7761 -0.6306 0.6306 -0.7761 93.6559 63.2693)" width="2.599" height="12.705"/>
	<rect x="56.253" y="18.523" transform="matrix(-0.49 -0.8717 0.8717 -0.49 65.0974 85.4757)" width="2.599" height="10.346"/>
	<rect x="9.198" y="37.716" width="27.29" height="2.598"/>
	<rect x="44.414" y="37.716" width="27.288" height="2.598"/>
</g>
</svg>
